<?xml version="1.0" standalone="no"?>
<!DOCTYPE svg PUBLIC "-//W3C//DTD SVG 20010904//EN"
 "http://www.w3.org/TR/2001/REC-SVG-20010904/DTD/svg10.dtd">
<svg version="1.0" xmlns="http://www.w3.org/2000/svg"
 width="92.000000pt" height="63.000000pt" viewBox="0 0 92.000000 63.000000"
 preserveAspectRatio="xMidYMid meet">

<g transform="translate(0.000000,63.000000) scale(0.100000,-0.100000)"
fill="#000000" stroke="none">
<path d="M37 563 c-12 -11 -8 -20 11 -25 15 -4 29 -46 70 -209 28 -112 52
-213 54 -224 3 -18 12 -20 81 -23 l77 -3 0 28 c0 15 16 80 34 143 l34 115 10
-40 c6 -22 21 -80 33 -130 12 -49 23 -96 25 -102 2 -9 27 -13 79 -13 69 0 75
2 75 20 0 11 20 107 45 213 41 177 47 194 76 217 16 14 27 29 23 33 -10 10
-132 9 -138 -2 -3 -5 5 -16 19 -25 15 -10 25 -26 25 -39 -1 -41 -67 -292 -73
-277 -4 8 -23 80 -42 160 -33 129 -35 146 -21 156 37 27 16 34 -93 34 -108 0
-140 -9 -103 -29 12 -6 23 -30 30 -63 11 -49 9 -62 -22 -168 l-34 -115 -10 40
c-25 93 -72 285 -72 293 0 5 9 12 21 15 12 3 18 10 14 16 -7 12 -217 16 -228
4z"/>
<path d="M703 210 c-29 -27 -37 -56 -23 -90 24 -58 107 -64 135 -10 21 41 19
67 -10 95 -29 30 -73 32 -102 5z"/>
</g>
</svg>
